<?xml version="1.0" encoding="UTF-8" standalone="no"?>
<!DOCTYPE svg PUBLIC "-//W3C//DTD SVG 1.1//EN"
 "http://www.w3.org/Graphics/SVG/1.1/DTD/svg11.dtd">
<!-- Generated by graphviz version 6.0.1 (20220911.1526)
 -->
<!-- Pages: 1 -->
<svg width="3300pt" height="548pt"
 viewBox="0.00 0.00 3299.73 548.00" xmlns="http://www.w3.org/2000/svg" xmlns:xlink="http://www.w3.org/1999/xlink">
<g id="graph0" class="graph" transform="scale(1 1) rotate(0) translate(4 544)">
<polygon fill="white" stroke="none" points="-4,4 -4,-544 3295.73,-544 3295.73,4 -4,4"/>
<!-- [root] aws_default_route_table.default&#45;rtb (expand) -->
<g id="node1" class="node">
<title>[root] aws_default_route_table.default&#45;rtb (expand)</title>
<polygon fill="none" stroke="black" points="1376.77,-252 1166.77,-252 1166.77,-216 1376.77,-216 1376.77,-252"/>
<text text-anchor="middle" x="1271.77" y="-230.3" font-family="Times,serif" font-size="14.00">aws_default_route_table.default&#45;rtb</text>
</g>
<!-- [root] aws_vpc.vpc (expand) -->
<g id="node8" class="node">
<title>[root] aws_vpc.vpc (expand)</title>
<polygon fill="none" stroke="black" points="1177.27,-180 1090.27,-180 1090.27,-144 1177.27,-144 1177.27,-180"/>
<text text-anchor="middle" x="1133.77" y="-158.3" font-family="Times,serif" font-size="14.00">aws_vpc.vpc</text>
</g>
<!-- [root] aws_default_route_table.default&#45;rtb (expand)&#45;&gt;[root] aws_vpc.vpc (expand) -->
<g id="edge1" class="edge">
<title>[root] aws_default_route_table.default&#45;rtb (expand)&#45;&gt;[root] aws_vpc.vpc (expand)</title>
<path fill="none" stroke="black" d="M1238.01,-215.88C1219.55,-206.51 1196.49,-194.81 1176.75,-184.8"/>
<polygon fill="black" stroke="black" points="1178.16,-181.59 1167.66,-180.19 1174.99,-187.83 1178.16,-181.59"/>
</g>
<!-- [root] local.default&#45;vpc&#45;rtb (expand) -->
<g id="node25" class="node">
<title>[root] local.default&#45;vpc&#45;rtb (expand)</title>
<ellipse fill="none" stroke="black" cx="1769.77" cy="-90" rx="139.18" ry="18"/>
<text text-anchor="middle" x="1769.77" y="-86.3" font-family="Times,serif" font-size="14.00">[root] local.default&#45;vpc&#45;rtb (expand)</text>
</g>
<!-- [root] aws_default_route_table.default&#45;rtb (expand)&#45;&gt;[root] local.default&#45;vpc&#45;rtb (expand) -->
<g id="edge2" class="edge">
<title>[root] aws_default_route_table.default&#45;rtb (expand)&#45;&gt;[root] local.default&#45;vpc&#45;rtb (expand)</title>
<path fill="none" stroke="black" d="M1331.84,-215.87C1426.25,-188.95 1608.59,-136.96 1705.52,-109.32"/>
<polygon fill="black" stroke="black" points="1706.54,-112.67 1715.2,-106.56 1704.62,-105.94 1706.54,-112.67"/>
</g>
<!-- [root] aws_internet_gateway.igw (expand) -->
<g id="node2" class="node">
<title>[root] aws_internet_gateway.igw (expand)</title>
<polygon fill="none" stroke="black" points="834.27,-252 673.27,-252 673.27,-216 834.27,-216 834.27,-252"/>
<text text-anchor="middle" x="753.77" y="-230.3" font-family="Times,serif" font-size="14.00">aws_internet_gateway.igw</text>
</g>
<!-- [root] aws_internet_gateway.igw (expand)&#45;&gt;[root] aws_vpc.vpc (expand) -->
<g id="edge3" class="edge">
<title>[root] aws_internet_gateway.igw (expand)&#45;&gt;[root] aws_vpc.vpc (expand)</title>
<path fill="none" stroke="black" d="M834.36,-218.15C908.49,-204.5 1016.35,-184.63 1080.35,-172.84"/>
<polygon fill="black" stroke="black" points="1081.03,-176.27 1090.23,-171.02 1079.76,-169.39 1081.03,-176.27"/>
</g>
<!-- [root] local.igw_name (expand) -->
<g id="node26" class="node">
<title>[root] local.igw_name (expand)</title>
<ellipse fill="none" stroke="black" cx="906.77" cy="-90" rx="123.48" ry="18"/>
<text text-anchor="middle" x="906.77" y="-86.3" font-family="Times,serif" font-size="14.00">[root] local.igw_name (expand)</text>
</g>
<!-- [root] aws_internet_gateway.igw (expand)&#45;&gt;[root] local.igw_name (expand) -->
<g id="edge4" class="edge">
<title>[root] aws_internet_gateway.igw (expand)&#45;&gt;[root] local.igw_name (expand)</title>
<path fill="none" stroke="black" d="M772.22,-215.87C799.33,-190.71 850.04,-143.65 880.86,-115.04"/>
<polygon fill="black" stroke="black" points="883.3,-117.56 888.25,-108.19 878.54,-112.43 883.3,-117.56"/>
</g>
<!-- [root] aws_route_table.public&#45;rtb (expand) -->
<g id="node3" class="node">
<title>[root] aws_route_table.public&#45;rtb (expand)</title>
<polygon fill="none" stroke="black" points="834.77,-324 672.77,-324 672.77,-288 834.77,-288 834.77,-324"/>
<text text-anchor="middle" x="753.77" y="-302.3" font-family="Times,serif" font-size="14.00">aws_route_table.public&#45;rtb</text>
</g>
<!-- [root] aws_route_table.public&#45;rtb (expand)&#45;&gt;[root] aws_internet_gateway.igw (expand) -->
<g id="edge5" class="edge">
<title>[root] aws_route_table.public&#45;rtb (expand)&#45;&gt;[root] aws_internet_gateway.igw (expand)</title>
<path fill="none" stroke="black" d="M753.77,-287.7C753.77,-279.98 753.77,-270.71 753.77,-262.11"/>
<polygon fill="black" stroke="black" points="757.27,-262.1 753.77,-252.1 750.27,-262.1 757.27,-262.1"/>
</g>
<!-- [root] local.public&#45;rtb (expand) -->
<g id="node27" class="node">
<title>[root] local.public&#45;rtb (expand)</title>
<ellipse fill="none" stroke="black" cx="644.77" cy="-90" rx="120.78" ry="18"/>
<text text-anchor="middle" x="644.77" y="-86.3" font-family="Times,serif" font-size="14.00">[root] local.public&#45;rtb (expand)</text>
</g>
<!-- [root] aws_route_table.public&#45;rtb (expand)&#45;&gt;[root] local.public&#45;rtb (expand) -->
<g id="edge6" class="edge">
<title>[root] aws_route_table.public&#45;rtb (expand)&#45;&gt;[root] local.public&#45;rtb (expand)</title>
<path fill="none" stroke="black" d="M707.16,-287.84C690.86,-279.5 674.07,-267.79 663.77,-252 637.26,-211.37 637.84,-152.48 641.04,-118.32"/>
<polygon fill="black" stroke="black" points="644.54,-118.48 642.14,-108.16 637.58,-117.72 644.54,-118.48"/>
</g>
<!-- [root] aws_route_table_association.route&#45;table&#45;private&#45;subnet&#45;05 (expand) -->
<g id="node4" class="node">
<title>[root] aws_route_table_association.route&#45;table&#45;private&#45;subnet&#45;05 (expand)</title>
<polygon fill="none" stroke="black" points="1617.77,-396 1283.77,-396 1283.77,-360 1617.77,-360 1617.77,-396"/>
<text text-anchor="middle" x="1450.77" y="-374.3" font-family="Times,serif" font-size="14.00">aws_route_table_association.route&#45;table&#45;private&#45;subnet&#45;05</text>
</g>
<!-- [root] aws_route_table_association.route&#45;table&#45;private&#45;subnet&#45;05 (expand)&#45;&gt;[root] aws_default_route_table.default&#45;rtb (expand) -->
<g id="edge7" class="edge">
<title>[root] aws_route_table_association.route&#45;table&#45;private&#45;subnet&#45;05 (expand)&#45;&gt;[root] aws_default_route_table.default&#45;rtb (expand)</title>
<path fill="none" stroke="black" d="M1451.86,-359.69C1452.13,-339.92 1449.48,-307.77 1431.77,-288 1419.05,-273.8 1402.44,-263.4 1384.75,-255.78"/>
<polygon fill="black" stroke="black" points="1386,-252.51 1375.41,-252.04 1383.39,-259.01 1386,-252.51"/>
</g>
<!-- [root] aws_subnet.private&#45;subnet&#45;05 (expand) -->
<g id="node6" class="node">
<title>[root] aws_subnet.private&#45;subnet&#45;05 (expand)</title>
<polygon fill="none" stroke="black" points="1422.27,-324 1243.27,-324 1243.27,-288 1422.27,-288 1422.27,-324"/>
<text text-anchor="middle" x="1332.77" y="-302.3" font-family="Times,serif" font-size="14.00">aws_subnet.private&#45;subnet&#45;05</text>
</g>
<!-- [root] aws_route_table_association.route&#45;table&#45;private&#45;subnet&#45;05 (expand)&#45;&gt;[root] aws_subnet.private&#45;subnet&#45;05 (expand) -->
<g id="edge8" class="edge">
<title>[root] aws_route_table_association.route&#45;table&#45;private&#45;subnet&#45;05 (expand)&#45;&gt;[root] aws_subnet.private&#45;subnet&#45;05 (expand)</title>
<path fill="none" stroke="black" d="M1421.9,-359.88C1406.47,-350.72 1387.29,-339.34 1370.67,-329.48"/>
<polygon fill="black" stroke="black" points="1372.13,-326.28 1361.75,-324.19 1368.56,-332.3 1372.13,-326.28"/>
</g>
<!-- [root] aws_route_table_association.route&#45;table&#45;public&#45;subnet&#45;01 (expand) -->
<g id="node5" class="node">
<title>[root] aws_route_table_association.route&#45;table&#45;public&#45;subnet&#45;01 (expand)</title>
<polygon fill="none" stroke="black" points="1265.77,-396 935.77,-396 935.77,-360 1265.77,-360 1265.77,-396"/>
<text text-anchor="middle" x="1100.77" y="-374.3" font-family="Times,serif" font-size="14.00">aws_route_table_association.route&#45;table&#45;public&#45;subnet&#45;01</text>
</g>
<!-- [root] aws_route_table_association.route&#45;table&#45;public&#45;subnet&#45;01 (expand)&#45;&gt;[root] aws_route_table.public&#45;rtb (expand) -->
<g id="edge9" class="edge">
<title>[root] aws_route_table_association.route&#45;table&#45;public&#45;subnet&#45;01 (expand)&#45;&gt;[root] aws_route_table.public&#45;rtb (expand)</title>
<path fill="none" stroke="black" d="M1016.33,-359.97C964.5,-349.51 898.12,-336.12 845.08,-325.42"/>
<polygon fill="black" stroke="black" points="845.49,-321.93 835,-323.39 844.11,-328.79 845.49,-321.93"/>
</g>
<!-- [root] aws_subnet.public&#45;subnet&#45;01 (expand) -->
<g id="node7" class="node">
<title>[root] aws_subnet.public&#45;subnet&#45;01 (expand)</title>
<polygon fill="none" stroke="black" points="1188.27,-324 1013.27,-324 1013.27,-288 1188.27,-288 1188.27,-324"/>
<text text-anchor="middle" x="1100.77" y="-302.3" font-family="Times,serif" font-size="14.00">aws_subnet.public&#45;subnet&#45;01</text>
</g>
<!-- [root] aws_route_table_association.route&#45;table&#45;public&#45;subnet&#45;01 (expand)&#45;&gt;[root] aws_subnet.public&#45;subnet&#45;01 (expand) -->
<g id="edge10" class="edge">
<title>[root] aws_route_table_association.route&#45;table&#45;public&#45;subnet&#45;01 (expand)&#45;&gt;[root] aws_subnet.public&#45;subnet&#45;01 (expand)</title>
<path fill="none" stroke="black" d="M1100.77,-359.7C1100.77,-351.98 1100.77,-342.71 1100.77,-334.11"/>
<polygon fill="black" stroke="black" points="1104.27,-334.1 1100.77,-324.1 1097.27,-334.1 1104.27,-334.1"/>
</g>
<!-- [root] aws_subnet.private&#45;subnet&#45;05 (expand)&#45;&gt;[root] aws_vpc.vpc (expand) -->
<g id="edge11" class="edge">
<title>[root] aws_subnet.private&#45;subnet&#45;05 (expand)&#45;&gt;[root] aws_vpc.vpc (expand)</title>
<path fill="none" stroke="black" d="M1242.99,-295.66C1212.35,-288.25 1180.2,-275.13 1157.77,-252 1141.88,-235.62 1136.25,-209.87 1134.37,-190.28"/>
<polygon fill="black" stroke="black" points="1137.85,-189.86 1133.68,-180.12 1130.87,-190.34 1137.85,-189.86"/>
</g>
<!-- [root] local.subnet&#45;06_name (expand) -->
<g id="node28" class="node">
<title>[root] local.subnet&#45;06_name (expand)</title>
<ellipse fill="none" stroke="black" cx="1847.77" cy="-234" rx="144.87" ry="18"/>
<text text-anchor="middle" x="1847.77" y="-230.3" font-family="Times,serif" font-size="14.00">[root] local.subnet&#45;06_name (expand)</text>
</g>
<!-- [root] aws_subnet.private&#45;subnet&#45;05 (expand)&#45;&gt;[root] local.subnet&#45;06_name (expand) -->
<g id="edge12" class="edge">
<title>[root] aws_subnet.private&#45;subnet&#45;05 (expand)&#45;&gt;[root] local.subnet&#45;06_name (expand)</title>
<path fill="none" stroke="black" d="M1422.47,-292.81C1512.01,-280.64 1649.48,-261.95 1743.74,-249.14"/>
<polygon fill="black" stroke="black" points="1744.43,-252.58 1753.87,-247.76 1743.49,-245.64 1744.43,-252.58"/>
</g>
<!-- [root] aws_subnet.public&#45;subnet&#45;01 (expand)&#45;&gt;[root] aws_vpc.vpc (expand) -->
<g id="edge13" class="edge">
<title>[root] aws_subnet.public&#45;subnet&#45;01 (expand)&#45;&gt;[root] aws_vpc.vpc (expand)</title>
<path fill="none" stroke="black" d="M1104.75,-287.87C1110.4,-263.56 1120.8,-218.82 1127.49,-190.01"/>
<polygon fill="black" stroke="black" points="1130.92,-190.72 1129.77,-180.19 1124.1,-189.14 1130.92,-190.72"/>
</g>
<!-- [root] var.map_public_ip_on_launch -->
<g id="node20" class="node">
<title>[root] var.map_public_ip_on_launch</title>
<polygon fill="none" stroke="black" points="1066.77,-252 890.77,-252 890.77,-216 1072.77,-216 1072.77,-246 1066.77,-252"/>
<polyline fill="none" stroke="black" points="1066.77,-252 1066.77,-246"/>
<polyline fill="none" stroke="black" points="1072.77,-246 1066.77,-246"/>
<text text-anchor="middle" x="981.77" y="-230.3" font-family="Times,serif" font-size="14.00">var.map_public_ip_on_launch</text>
</g>
<!-- [root] aws_subnet.public&#45;subnet&#45;01 (expand)&#45;&gt;[root] var.map_public_ip_on_launch -->
<g id="edge15" class="edge">
<title>[root] aws_subnet.public&#45;subnet&#45;01 (expand)&#45;&gt;[root] var.map_public_ip_on_launch</title>
<path fill="none" stroke="black" d="M1071.66,-287.88C1056.1,-278.72 1036.75,-267.34 1019.99,-257.48"/>
<polygon fill="black" stroke="black" points="1021.38,-254.24 1010.99,-252.19 1017.84,-260.28 1021.38,-254.24"/>
</g>
<!-- [root] local.subnet&#45;01_name (expand) -->
<g id="node29" class="node">
<title>[root] local.subnet&#45;01_name (expand)</title>
<ellipse fill="none" stroke="black" cx="1539.77" cy="-234" rx="144.87" ry="18"/>
<text text-anchor="middle" x="1539.77" y="-230.3" font-family="Times,serif" font-size="14.00">[root] local.subnet&#45;01_name (expand)</text>
</g>
<!-- [root] aws_subnet.public&#45;subnet&#45;01 (expand)&#45;&gt;[root] local.subnet&#45;01_name (expand) -->
<g id="edge14" class="edge">
<title>[root] aws_subnet.public&#45;subnet&#45;01 (expand)&#45;&gt;[root] local.subnet&#45;01_name (expand)</title>
<path fill="none" stroke="black" d="M1188.29,-291.04C1262.38,-279.23 1368.38,-262.33 1444.57,-250.18"/>
<polygon fill="black" stroke="black" points="1445.32,-253.6 1454.65,-248.57 1444.22,-246.69 1445.32,-253.6"/>
</g>
<!-- [root] provider[&quot;registry.terraform.io/hashicorp/aws&quot;] -->
<g id="node10" class="node">
<title>[root] provider[&quot;registry.terraform.io/hashicorp/aws&quot;]</title>
<polygon fill="none" stroke="black" points="252.77,-108 0.23,-90 252.77,-72 505.3,-90 252.77,-108"/>
<text text-anchor="middle" x="252.77" y="-86.3" font-family="Times,serif" font-size="14.00">provider[&quot;registry.terraform.io/hashicorp/aws&quot;]</text>
</g>
<!-- [root] aws_vpc.vpc (expand)&#45;&gt;[root] provider[&quot;registry.terraform.io/hashicorp/aws&quot;] -->
<g id="edge17" class="edge">
<title>[root] aws_vpc.vpc (expand)&#45;&gt;[root] provider[&quot;registry.terraform.io/hashicorp/aws&quot;]</title>
<path fill="none" stroke="black" d="M1090.08,-157.53C960.65,-147.25 575.85,-116.67 376.14,-100.8"/>
<polygon fill="black" stroke="black" points="376.13,-97.29 365.89,-99.99 375.58,-104.27 376.13,-97.29"/>
</g>
<!-- [root] var.billing_code -->
<g id="node16" class="node">
<title>[root] var.billing_code</title>
<polygon fill="none" stroke="black" points="2456.77,-36 2358.77,-36 2358.77,0 2462.77,0 2462.77,-30 2456.77,-36"/>
<polyline fill="none" stroke="black" points="2456.77,-36 2456.77,-30"/>
<polyline fill="none" stroke="black" points="2462.77,-30 2456.77,-30"/>
<text text-anchor="middle" x="2410.77" y="-14.3" font-family="Times,serif" font-size="14.00">var.billing_code</text>
</g>
<!-- [root] aws_vpc.vpc (expand)&#45;&gt;[root] var.billing_code -->
<g id="edge18" class="edge">
<title>[root] aws_vpc.vpc (expand)&#45;&gt;[root] var.billing_code</title>
<path fill="none" stroke="black" d="M1177.53,-160.1C1405.83,-155.27 2450.78,-131.92 2473.77,-108 2493.22,-87.77 2469.02,-61.12 2445.2,-42.28"/>
<polygon fill="black" stroke="black" points="2447.28,-39.46 2437.2,-36.21 2443.05,-45.04 2447.28,-39.46"/>
</g>
<!-- [root] var.enable_dns_hostnames -->
<g id="node18" class="node">
<title>[root] var.enable_dns_hostnames</title>
<polygon fill="none" stroke="black" points="1203.77,-108 1047.77,-108 1047.77,-72 1209.77,-72 1209.77,-102 1203.77,-108"/>
<polyline fill="none" stroke="black" points="1203.77,-108 1203.77,-102"/>
<polyline fill="none" stroke="black" points="1209.77,-102 1203.77,-102"/>
<text text-anchor="middle" x="1128.77" y="-86.3" font-family="Times,serif" font-size="14.00">var.enable_dns_hostnames</text>
</g>
<!-- [root] aws_vpc.vpc (expand)&#45;&gt;[root] var.enable_dns_hostnames -->
<g id="edge19" class="edge">
<title>[root] aws_vpc.vpc (expand)&#45;&gt;[root] var.enable_dns_hostnames</title>
<path fill="none" stroke="black" d="M1132.53,-143.7C1131.98,-135.98 1131.32,-126.71 1130.7,-118.11"/>
<polygon fill="black" stroke="black" points="1134.19,-117.83 1129.99,-108.1 1127.21,-118.33 1134.19,-117.83"/>
</g>
<!-- [root] var.vpc_cidr_block -->
<g id="node22" class="node">
<title>[root] var.vpc_cidr_block</title>
<polygon fill="none" stroke="black" points="1343.27,-108 1228.27,-108 1228.27,-72 1349.27,-72 1349.27,-102 1343.27,-108"/>
<polyline fill="none" stroke="black" points="1343.27,-108 1343.27,-102"/>
<polyline fill="none" stroke="black" points="1349.27,-102 1343.27,-102"/>
<text text-anchor="middle" x="1288.77" y="-86.3" font-family="Times,serif" font-size="14.00">var.vpc_cidr_block</text>
</g>
<!-- [root] aws_vpc.vpc (expand)&#45;&gt;[root] var.vpc_cidr_block -->
<g id="edge20" class="edge">
<title>[root] aws_vpc.vpc (expand)&#45;&gt;[root] var.vpc_cidr_block</title>
<path fill="none" stroke="black" d="M1171.69,-143.88C1192.78,-134.35 1219.22,-122.41 1241.64,-112.28"/>
<polygon fill="black" stroke="black" points="1243.3,-115.37 1250.97,-108.07 1240.42,-108.99 1243.3,-115.37"/>
</g>
<!-- [root] local.vpc_name (expand) -->
<g id="node30" class="node">
<title>[root] local.vpc_name (expand)</title>
<ellipse fill="none" stroke="black" cx="1489.77" cy="-90" rx="122.68" ry="18"/>
<text text-anchor="middle" x="1489.77" y="-86.3" font-family="Times,serif" font-size="14.00">[root] local.vpc_name (expand)</text>
</g>
<!-- [root] aws_vpc.vpc (expand)&#45;&gt;[root] local.vpc_name (expand) -->
<g id="edge16" class="edge">
<title>[root] aws_vpc.vpc (expand)&#45;&gt;[root] local.vpc_name (expand)</title>
<path fill="none" stroke="black" d="M1177.42,-152.42C1235.05,-141.08 1337.61,-120.92 1409.43,-106.8"/>
<polygon fill="black" stroke="black" points="1410.22,-110.21 1419.35,-104.85 1408.87,-103.34 1410.22,-110.21"/>
</g>
<!-- [root] data.aws_availability_zones.available (expand) -->
<g id="node9" class="node">
<title>[root] data.aws_availability_zones.available (expand)</title>
<polygon fill="none" stroke="black" points="581.27,-324 360.27,-324 360.27,-288 581.27,-288 581.27,-324"/>
<text text-anchor="middle" x="470.77" y="-302.3" font-family="Times,serif" font-size="14.00">data.aws_availability_zones.available</text>
</g>
<!-- [root] data.aws_availability_zones.available (expand)&#45;&gt;[root] provider[&quot;registry.terraform.io/hashicorp/aws&quot;] -->
<g id="edge21" class="edge">
<title>[root] data.aws_availability_zones.available (expand)&#45;&gt;[root] provider[&quot;registry.terraform.io/hashicorp/aws&quot;]</title>
<path fill="none" stroke="black" d="M453.3,-287.85C414.41,-249.67 320.67,-157.65 276.52,-114.31"/>
<polygon fill="black" stroke="black" points="278.71,-111.57 269.13,-107.06 273.81,-116.56 278.71,-111.57"/>
</g>
<!-- [root] var.aws_access_key -->
<g id="node12" class="node">
<title>[root] var.aws_access_key</title>
<polygon fill="none" stroke="black" points="451.27,-36 332.27,-36 332.27,0 457.27,0 457.27,-30 451.27,-36"/>
<polyline fill="none" stroke="black" points="451.27,-36 451.27,-30"/>
<polyline fill="none" stroke="black" points="457.27,-30 451.27,-30"/>
<text text-anchor="middle" x="394.77" y="-14.3" font-family="Times,serif" font-size="14.00">var.aws_access_key</text>
</g>
<!-- [root] provider[&quot;registry.terraform.io/hashicorp/aws&quot;]&#45;&gt;[root] var.aws_access_key -->
<g id="edge57" class="edge">
<title>[root] provider[&quot;registry.terraform.io/hashicorp/aws&quot;]&#45;&gt;[root] var.aws_access_key</title>
<path fill="none" stroke="black" d="M283.23,-73.98C302.98,-64.25 329.03,-51.41 350.98,-40.58"/>
<polygon fill="black" stroke="black" points="352.69,-43.64 360.11,-36.08 349.6,-37.37 352.69,-43.64"/>
</g>
<!-- [root] var.aws_region -->
<g id="node13" class="node">
<title>[root] var.aws_region</title>
<polygon fill="none" stroke="black" points="167.27,-36 74.27,-36 74.27,0 173.27,0 173.27,-30 167.27,-36"/>
<polyline fill="none" stroke="black" points="167.27,-36 167.27,-30"/>
<polyline fill="none" stroke="black" points="173.27,-30 167.27,-30"/>
<text text-anchor="middle" x="123.77" y="-14.3" font-family="Times,serif" font-size="14.00">var.aws_region</text>
</g>
<!-- [root] provider[&quot;registry.terraform.io/hashicorp/aws&quot;]&#45;&gt;[root] var.aws_region -->
<g id="edge58" class="edge">
<title>[root] provider[&quot;registry.terraform.io/hashicorp/aws&quot;]&#45;&gt;[root] var.aws_region</title>
<path fill="none" stroke="black" d="M224.78,-73.81C207.12,-64.23 184.02,-51.7 164.37,-41.03"/>
<polygon fill="black" stroke="black" points="165.79,-37.82 155.33,-36.13 162.45,-43.97 165.79,-37.82"/>
</g>
<!-- [root] var.aws_secret_key -->
<g id="node15" class="node">
<title>[root] var.aws_secret_key</title>
<polygon fill="none" stroke="black" points="307.77,-36 191.77,-36 191.77,0 313.77,0 313.77,-30 307.77,-36"/>
<polyline fill="none" stroke="black" points="307.77,-36 307.77,-30"/>
<polyline fill="none" stroke="black" points="313.77,-30 307.77,-30"/>
<text text-anchor="middle" x="252.77" y="-14.3" font-family="Times,serif" font-size="14.00">var.aws_secret_key</text>
</g>
<!-- [root] provider[&quot;registry.terraform.io/hashicorp/aws&quot;]&#45;&gt;[root] var.aws_secret_key -->
<g id="edge59" class="edge">
<title>[root] provider[&quot;registry.terraform.io/hashicorp/aws&quot;]&#45;&gt;[root] var.aws_secret_key</title>
<path fill="none" stroke="black" d="M252.77,-71.7C252.77,-63.98 252.77,-54.71 252.77,-46.11"/>
<polygon fill="black" stroke="black" points="256.27,-46.1 252.77,-36.1 249.27,-46.1 256.27,-46.1"/>
</g>
<!-- [root] var.application -->
<g id="node11" class="node">
<title>[root] var.application</title>
<polygon fill="none" stroke="black" points="1677.27,-36 1586.27,-36 1586.27,0 1683.27,0 1683.27,-30 1677.27,-36"/>
<polyline fill="none" stroke="black" points="1677.27,-36 1677.27,-30"/>
<polyline fill="none" stroke="black" points="1683.27,-30 1677.27,-30"/>
<text text-anchor="middle" x="1634.77" y="-14.3" font-family="Times,serif" font-size="14.00">var.application</text>
</g>
<!-- [root] var.aws_region_us_east_north_virginia -->
<g id="node14" class="node">
<title>[root] var.aws_region_us_east_north_virginia</title>
<polygon fill="none" stroke="black" points="2291.77,-180 2067.77,-180 2067.77,-144 2297.77,-144 2297.77,-174 2291.77,-180"/>
<polyline fill="none" stroke="black" points="2291.77,-180 2291.77,-174"/>
<polyline fill="none" stroke="black" points="2297.77,-174 2291.77,-174"/>
<text text-anchor="middle" x="2182.77" y="-158.3" font-family="Times,serif" font-size="14.00">var.aws_region_us_east_north_virginia</text>
</g>
<!-- [root] var.company -->
<g id="node17" class="node">
<title>[root] var.company</title>
<polygon fill="none" stroke="black" points="1798.27,-36 1717.27,-36 1717.27,0 1804.27,0 1804.27,-30 1798.27,-36"/>
<polyline fill="none" stroke="black" points="1798.27,-36 1798.27,-30"/>
<polyline fill="none" stroke="black" points="1804.27,-30 1798.27,-30"/>
<text text-anchor="middle" x="1760.77" y="-14.3" font-family="Times,serif" font-size="14.00">var.company</text>
</g>
<!-- [root] var.instance_type -->
<g id="node19" class="node">
<title>[root] var.instance_type</title>
<polygon fill="none" stroke="black" points="2875.27,-468 2770.27,-468 2770.27,-432 2881.27,-432 2881.27,-462 2875.27,-468"/>
<polyline fill="none" stroke="black" points="2875.27,-468 2875.27,-462"/>
<polyline fill="none" stroke="black" points="2881.27,-462 2875.27,-462"/>
<text text-anchor="middle" x="2825.77" y="-446.3" font-family="Times,serif" font-size="14.00">var.instance_type</text>
</g>
<!-- [root] var.project -->
<g id="node21" class="node">
<title>[root] var.project</title>
<polygon fill="none" stroke="black" points="1528.77,-36 1460.77,-36 1460.77,0 1534.77,0 1534.77,-30 1528.77,-36"/>
<polyline fill="none" stroke="black" points="1528.77,-36 1528.77,-30"/>
<polyline fill="none" stroke="black" points="1534.77,-30 1528.77,-30"/>
<text text-anchor="middle" x="1497.77" y="-14.3" font-family="Times,serif" font-size="14.00">var.project</text>
</g>
<!-- [root] var.vpc_cidr_subnets -->
<g id="node23" class="node">
<title>[root] var.vpc_cidr_subnets</title>
<polygon fill="none" stroke="black" points="2469.27,-180 2344.27,-180 2344.27,-144 2475.27,-144 2475.27,-174 2469.27,-180"/>
<polyline fill="none" stroke="black" points="2469.27,-180 2469.27,-174"/>
<polyline fill="none" stroke="black" points="2475.27,-174 2469.27,-174"/>
<text text-anchor="middle" x="2409.77" y="-158.3" font-family="Times,serif" font-size="14.00">var.vpc_cidr_subnets</text>
</g>
<!-- [root] var.vpc_name -->
<g id="node24" class="node">
<title>[root] var.vpc_name</title>
<polygon fill="none" stroke="black" points="2986.27,-468 2899.27,-468 2899.27,-432 2992.27,-432 2992.27,-462 2986.27,-468"/>
<polyline fill="none" stroke="black" points="2986.27,-468 2986.27,-462"/>
<polyline fill="none" stroke="black" points="2992.27,-462 2986.27,-462"/>
<text text-anchor="middle" x="2945.77" y="-446.3" font-family="Times,serif" font-size="14.00">var.vpc_name</text>
</g>
<!-- [root] local.default&#45;vpc&#45;rtb (expand)&#45;&gt;[root] var.application -->
<g id="edge26" class="edge">
<title>[root] local.default&#45;vpc&#45;rtb (expand)&#45;&gt;[root] var.application</title>
<path fill="none" stroke="black" d="M1737.78,-72.41C1719.6,-62.99 1696.63,-51.07 1676.99,-40.89"/>
<polygon fill="black" stroke="black" points="1678.43,-37.7 1667.94,-36.2 1675.21,-43.91 1678.43,-37.7"/>
</g>
<!-- [root] local.default&#45;vpc&#45;rtb (expand)&#45;&gt;[root] var.company -->
<g id="edge27" class="edge">
<title>[root] local.default&#45;vpc&#45;rtb (expand)&#45;&gt;[root] var.company</title>
<path fill="none" stroke="black" d="M1767.54,-71.7C1766.55,-63.98 1765.36,-54.71 1764.25,-46.11"/>
<polygon fill="black" stroke="black" points="1767.71,-45.58 1762.97,-36.1 1760.77,-46.47 1767.71,-45.58"/>
</g>
<!-- [root] local.default&#45;vpc&#45;rtb (expand)&#45;&gt;[root] var.project -->
<g id="edge28" class="edge">
<title>[root] local.default&#45;vpc&#45;rtb (expand)&#45;&gt;[root] var.project</title>
<path fill="none" stroke="black" d="M1710.08,-73.64C1660.5,-60.88 1590.92,-42.97 1545.12,-31.19"/>
<polygon fill="black" stroke="black" points="1545.71,-27.72 1535.15,-28.62 1543.96,-34.5 1545.71,-27.72"/>
</g>
<!-- [root] local.igw_name (expand)&#45;&gt;[root] var.application -->
<g id="edge29" class="edge">
<title>[root] local.igw_name (expand)&#45;&gt;[root] var.application</title>
<path fill="none" stroke="black" d="M993.31,-77.14C1008.45,-75.27 1024.05,-73.47 1038.77,-72 1262.67,-49.62 1320.59,-64.71 1543.77,-36 1554.16,-34.66 1565.15,-32.91 1575.78,-31.03"/>
<polygon fill="black" stroke="black" points="1576.6,-34.44 1585.81,-29.2 1575.35,-27.55 1576.6,-34.44"/>
</g>
<!-- [root] local.igw_name (expand)&#45;&gt;[root] var.company -->
<g id="edge30" class="edge">
<title>[root] local.igw_name (expand)&#45;&gt;[root] var.company</title>
<path fill="none" stroke="black" d="M992.58,-77.02C1007.94,-75.14 1023.81,-73.37 1038.77,-72 1328.66,-45.39 1404.93,-79.5 1692.77,-36 1697.48,-35.29 1702.35,-34.39 1707.21,-33.39"/>
<polygon fill="black" stroke="black" points="1708.11,-36.78 1717.12,-31.21 1706.6,-29.94 1708.11,-36.78"/>
</g>
<!-- [root] local.igw_name (expand)&#45;&gt;[root] var.project -->
<g id="edge31" class="edge">
<title>[root] local.igw_name (expand)&#45;&gt;[root] var.project</title>
<path fill="none" stroke="black" d="M995.5,-77.41C1009.96,-75.57 1024.78,-73.71 1038.77,-72 1189.01,-53.65 1367.12,-33.56 1450.41,-24.26"/>
<polygon fill="black" stroke="black" points="1451.01,-27.72 1460.56,-23.13 1450.24,-20.76 1451.01,-27.72"/>
</g>
<!-- [root] local.public&#45;rtb (expand)&#45;&gt;[root] var.application -->
<g id="edge35" class="edge">
<title>[root] local.public&#45;rtb (expand)&#45;&gt;[root] var.application</title>
<path fill="none" stroke="black" d="M728.57,-77C743.92,-75.1 759.8,-73.33 774.77,-72 1115.58,-41.79 1203.9,-75.51 1543.77,-36 1554.17,-34.79 1565.18,-33.1 1575.8,-31.24"/>
<polygon fill="black" stroke="black" points="1576.62,-34.65 1585.84,-29.42 1575.38,-27.76 1576.62,-34.65"/>
</g>
<!-- [root] local.public&#45;rtb (expand)&#45;&gt;[root] var.company -->
<g id="edge36" class="edge">
<title>[root] local.public&#45;rtb (expand)&#45;&gt;[root] var.company</title>
<path fill="none" stroke="black" d="M728.22,-76.95C743.67,-75.04 759.69,-73.28 774.77,-72 1181.62,-37.49 1288.57,-93.82 1692.77,-36 1697.49,-35.32 1702.36,-34.46 1707.22,-33.47"/>
<polygon fill="black" stroke="black" points="1708.11,-36.86 1717.14,-31.31 1706.62,-30.02 1708.11,-36.86"/>
</g>
<!-- [root] local.public&#45;rtb (expand)&#45;&gt;[root] var.project -->
<g id="edge37" class="edge">
<title>[root] local.public&#45;rtb (expand)&#45;&gt;[root] var.project</title>
<path fill="none" stroke="black" d="M730,-77.15C744.9,-75.28 760.28,-73.48 774.77,-72 1028.84,-46.1 1334.38,-27.96 1450.17,-21.55"/>
<polygon fill="black" stroke="black" points="1450.66,-25.03 1460.45,-20.98 1450.28,-18.04 1450.66,-25.03"/>
</g>
<!-- [root] local.subnet&#45;06_name (expand)&#45;&gt;[root] var.aws_region_us_east_north_virginia -->
<g id="edge48" class="edge">
<title>[root] local.subnet&#45;06_name (expand)&#45;&gt;[root] var.aws_region_us_east_north_virginia</title>
<path fill="none" stroke="black" d="M1918.4,-218.24C1968.73,-207.72 2036.84,-193.49 2091.32,-182.11"/>
<polygon fill="black" stroke="black" points="2092.25,-185.49 2101.33,-180.02 2090.82,-178.64 2092.25,-185.49"/>
</g>
<!-- [root] local.subnet&#45;06_name (expand)&#45;&gt;[root] var.vpc_cidr_subnets -->
<g id="edge49" class="edge">
<title>[root] local.subnet&#45;06_name (expand)&#45;&gt;[root] var.vpc_cidr_subnets</title>
<path fill="none" stroke="black" d="M1950.93,-221.36C2075.44,-207.26 2272.46,-184.81 2306.77,-180 2315.67,-178.75 2324.98,-177.35 2334.21,-175.9"/>
<polygon fill="black" stroke="black" points="2334.85,-179.34 2344.18,-174.32 2333.75,-172.43 2334.85,-179.34"/>
</g>
<!-- [root] local.subnet&#45;01_name (expand)&#45;&gt;[root] var.aws_region_us_east_north_virginia -->
<g id="edge38" class="edge">
<title>[root] local.subnet&#45;01_name (expand)&#45;&gt;[root] var.aws_region_us_east_north_virginia</title>
<path fill="none" stroke="black" d="M1644.14,-221.45C1660.74,-219.62 1677.72,-217.75 1693.77,-216 1817.49,-202.47 1958.83,-187.16 2057.63,-176.49"/>
<polygon fill="black" stroke="black" points="2058.09,-179.96 2067.66,-175.41 2057.34,-173.01 2058.09,-179.96"/>
</g>
<!-- [root] local.subnet&#45;01_name (expand)&#45;&gt;[root] var.vpc_cidr_subnets -->
<g id="edge39" class="edge">
<title>[root] local.subnet&#45;01_name (expand)&#45;&gt;[root] var.vpc_cidr_subnets</title>
<path fill="none" stroke="black" d="M1641.17,-221.06C1658.7,-219.21 1676.75,-217.44 1693.77,-216 1965.71,-193.02 2035.54,-210.26 2306.77,-180 2315.7,-179 2325.03,-177.76 2334.28,-176.39"/>
<polygon fill="black" stroke="black" points="2334.89,-179.84 2344.25,-174.87 2333.84,-172.92 2334.89,-179.84"/>
</g>
<!-- [root] local.vpc_name (expand)&#45;&gt;[root] var.application -->
<g id="edge50" class="edge">
<title>[root] local.vpc_name (expand)&#45;&gt;[root] var.application</title>
<path fill="none" stroke="black" d="M1523.76,-72.59C1543.6,-63.01 1568.85,-50.82 1590.25,-40.49"/>
<polygon fill="black" stroke="black" points="1591.99,-43.54 1599.47,-36.04 1588.94,-37.24 1591.99,-43.54"/>
</g>
<!-- [root] local.vpc_name (expand)&#45;&gt;[root] var.company -->
<g id="edge51" class="edge">
<title>[root] local.vpc_name (expand)&#45;&gt;[root] var.company</title>
<path fill="none" stroke="black" d="M1547.57,-74.07C1594.78,-61.87 1661,-44.77 1707.07,-32.87"/>
<polygon fill="black" stroke="black" points="1708.06,-36.23 1716.87,-30.34 1706.31,-29.45 1708.06,-36.23"/>
</g>
<!-- [root] local.vpc_name (expand)&#45;&gt;[root] var.project -->
<g id="edge52" class="edge">
<title>[root] local.vpc_name (expand)&#45;&gt;[root] var.project</title>
<path fill="none" stroke="black" d="M1491.75,-71.7C1492.63,-63.98 1493.69,-54.71 1494.67,-46.11"/>
<polygon fill="black" stroke="black" points="1498.16,-46.44 1495.81,-36.1 1491.2,-45.64 1498.16,-46.44"/>
</g>
<!-- [root] local.common_tags (expand) -->
<g id="node31" class="node">
<title>[root] local.common_tags (expand)</title>
<ellipse fill="none" stroke="black" cx="2328.77" cy="-90" rx="136.48" ry="18"/>
<text text-anchor="middle" x="2328.77" y="-86.3" font-family="Times,serif" font-size="14.00">[root] local.common_tags (expand)</text>
</g>
<!-- [root] local.common_tags (expand)&#45;&gt;[root] var.application -->
<g id="edge22" class="edge">
<title>[root] local.common_tags (expand)&#45;&gt;[root] var.application</title>
<path fill="none" stroke="black" d="M2232.23,-77.21C2215.74,-75.35 2198.77,-73.54 2182.77,-72 1972.46,-51.78 1917.64,-67.74 1708.77,-36 1703.77,-35.24 1698.6,-34.33 1693.43,-33.32"/>
<polygon fill="black" stroke="black" points="1694.03,-29.87 1683.53,-31.29 1692.62,-36.73 1694.03,-29.87"/>
</g>
<!-- [root] local.common_tags (expand)&#45;&gt;[root] var.billing_code -->
<g id="edge23" class="edge">
<title>[root] local.common_tags (expand)&#45;&gt;[root] var.billing_code</title>
<path fill="none" stroke="black" d="M2348.62,-72.05C2358.92,-63.26 2371.67,-52.38 2382.93,-42.76"/>
<polygon fill="black" stroke="black" points="2385.48,-45.19 2390.82,-36.03 2380.94,-39.86 2385.48,-45.19"/>
</g>
<!-- [root] local.common_tags (expand)&#45;&gt;[root] var.company -->
<g id="edge24" class="edge">
<title>[root] local.common_tags (expand)&#45;&gt;[root] var.company</title>
<path fill="none" stroke="black" d="M2232.74,-77.17C2112.48,-62.34 1910.62,-37.47 1814.62,-25.64"/>
<polygon fill="black" stroke="black" points="1814.91,-22.15 1804.56,-24.4 1814.06,-29.09 1814.91,-22.15"/>
</g>
<!-- [root] local.common_tags (expand)&#45;&gt;[root] var.project -->
<g id="edge25" class="edge">
<title>[root] local.common_tags (expand)&#45;&gt;[root] var.project</title>
<path fill="none" stroke="black" d="M2233.43,-77.11C2216.57,-75.24 2199.16,-73.44 2182.77,-72 1914.44,-48.41 1844.7,-72.1 1577.77,-36 1567.11,-34.56 1555.74,-32.48 1545.03,-30.27"/>
<polygon fill="black" stroke="black" points="1545.52,-26.79 1535.01,-28.12 1544.06,-33.64 1545.52,-26.79"/>
</g>
<!-- [root] local.private&#45;rtb (expand) -->
<g id="node32" class="node">
<title>[root] local.private&#45;rtb (expand)</title>
<ellipse fill="none" stroke="black" cx="2050.77" cy="-90" rx="123.48" ry="18"/>
<text text-anchor="middle" x="2050.77" y="-86.3" font-family="Times,serif" font-size="14.00">[root] local.private&#45;rtb (expand)</text>
</g>
<!-- [root] local.private&#45;rtb (expand)&#45;&gt;[root] var.application -->
<g id="edge32" class="edge">
<title>[root] local.private&#45;rtb (expand)&#45;&gt;[root] var.application</title>
<path fill="none" stroke="black" d="M1963.32,-77.22C1894.04,-67.46 1794.92,-52.55 1708.77,-36 1703.8,-35.05 1698.66,-33.99 1693.5,-32.9"/>
<polygon fill="black" stroke="black" points="1694.14,-29.46 1683.62,-30.75 1692.65,-36.29 1694.14,-29.46"/>
</g>
<!-- [root] local.private&#45;rtb (expand)&#45;&gt;[root] var.company -->
<g id="edge33" class="edge">
<title>[root] local.private&#45;rtb (expand)&#45;&gt;[root] var.company</title>
<path fill="none" stroke="black" d="M1989.97,-74.33C1938.08,-61.8 1864.15,-43.96 1814.42,-31.95"/>
<polygon fill="black" stroke="black" points="1815.04,-28.5 1804.5,-29.56 1813.4,-35.3 1815.04,-28.5"/>
</g>
<!-- [root] local.private&#45;rtb (expand)&#45;&gt;[root] var.project -->
<g id="edge34" class="edge">
<title>[root] local.private&#45;rtb (expand)&#45;&gt;[root] var.project</title>
<path fill="none" stroke="black" d="M1962.09,-77.39C1947.3,-75.54 1932.1,-73.67 1917.77,-72 1766.84,-54.37 1727.84,-59.82 1577.77,-36 1567.14,-34.31 1555.8,-32.14 1545.09,-29.9"/>
<polygon fill="black" stroke="black" points="1545.57,-26.43 1535.06,-27.76 1544.11,-33.27 1545.57,-26.43"/>
</g>
<!-- [root] local.subnet&#45;02_name (expand) -->
<g id="node33" class="node">
<title>[root] local.subnet&#45;02_name (expand)</title>
<ellipse fill="none" stroke="black" cx="2771.77" cy="-234" rx="144.87" ry="18"/>
<text text-anchor="middle" x="2771.77" y="-230.3" font-family="Times,serif" font-size="14.00">[root] local.subnet&#45;02_name (expand)</text>
</g>
<!-- [root] local.subnet&#45;02_name (expand)&#45;&gt;[root] var.aws_region_us_east_north_virginia -->
<g id="edge40" class="edge">
<title>[root] local.subnet&#45;02_name (expand)&#45;&gt;[root] var.aws_region_us_east_north_virginia</title>
<path fill="none" stroke="black" d="M2670.85,-221.01C2570.43,-209.07 2416.11,-190.73 2307.94,-177.88"/>
<polygon fill="black" stroke="black" points="2308.29,-174.39 2297.95,-176.69 2307.46,-181.34 2308.29,-174.39"/>
</g>
<!-- [root] local.subnet&#45;02_name (expand)&#45;&gt;[root] var.vpc_cidr_subnets -->
<g id="edge41" class="edge">
<title>[root] local.subnet&#45;02_name (expand)&#45;&gt;[root] var.vpc_cidr_subnets</title>
<path fill="none" stroke="black" d="M2696.76,-218.5C2634.97,-206.55 2547.72,-189.68 2485.68,-177.68"/>
<polygon fill="black" stroke="black" points="2486.05,-174.19 2475.56,-175.72 2484.72,-181.06 2486.05,-174.19"/>
</g>
<!-- [root] local.subnet&#45;03_name (expand) -->
<g id="node34" class="node">
<title>[root] local.subnet&#45;03_name (expand)</title>
<ellipse fill="none" stroke="black" cx="3079.77" cy="-234" rx="144.87" ry="18"/>
<text text-anchor="middle" x="3079.77" y="-230.3" font-family="Times,serif" font-size="14.00">[root] local.subnet&#45;03_name (expand)</text>
</g>
<!-- [root] local.subnet&#45;03_name (expand)&#45;&gt;[root] var.aws_region_us_east_north_virginia -->
<g id="edge42" class="edge">
<title>[root] local.subnet&#45;03_name (expand)&#45;&gt;[root] var.aws_region_us_east_north_virginia</title>
<path fill="none" stroke="black" d="M2978.36,-221.09C2960.84,-219.24 2942.79,-217.46 2925.77,-216 2664.02,-193.58 2597.51,-202.51 2335.77,-180 2326.77,-179.23 2317.49,-178.36 2308.15,-177.44"/>
<polygon fill="black" stroke="black" points="2308.3,-173.94 2298,-176.42 2307.6,-180.9 2308.3,-173.94"/>
</g>
<!-- [root] local.subnet&#45;03_name (expand)&#45;&gt;[root] var.vpc_cidr_subnets -->
<g id="edge43" class="edge">
<title>[root] local.subnet&#45;03_name (expand)&#45;&gt;[root] var.vpc_cidr_subnets</title>
<path fill="none" stroke="black" d="M2975.82,-221.42C2959.08,-219.58 2941.95,-217.72 2925.77,-216 2769.28,-199.33 2586,-180.72 2485.42,-170.59"/>
<polygon fill="black" stroke="black" points="2485.66,-167.1 2475.36,-169.58 2484.95,-174.06 2485.66,-167.1"/>
</g>
<!-- [root] local.subnet&#45;04_name (expand) -->
<g id="node35" class="node">
<title>[root] local.subnet&#45;04_name (expand)</title>
<ellipse fill="none" stroke="black" cx="2155.77" cy="-234" rx="144.87" ry="18"/>
<text text-anchor="middle" x="2155.77" y="-230.3" font-family="Times,serif" font-size="14.00">[root] local.subnet&#45;04_name (expand)</text>
</g>
<!-- [root] local.subnet&#45;04_name (expand)&#45;&gt;[root] var.aws_region_us_east_north_virginia -->
<g id="edge44" class="edge">
<title>[root] local.subnet&#45;04_name (expand)&#45;&gt;[root] var.aws_region_us_east_north_virginia</title>
<path fill="none" stroke="black" d="M2162.44,-215.7C2165.48,-207.81 2169.15,-198.3 2172.53,-189.55"/>
<polygon fill="black" stroke="black" points="2175.84,-190.69 2176.17,-180.1 2169.31,-188.17 2175.84,-190.69"/>
</g>
<!-- [root] local.subnet&#45;04_name (expand)&#45;&gt;[root] var.vpc_cidr_subnets -->
<g id="edge45" class="edge">
<title>[root] local.subnet&#45;04_name (expand)&#45;&gt;[root] var.vpc_cidr_subnets</title>
<path fill="none" stroke="black" d="M2212.45,-217.38C2249.6,-207.14 2298.46,-193.67 2338.27,-182.7"/>
<polygon fill="black" stroke="black" points="2339.21,-186.08 2347.92,-180.04 2337.35,-179.33 2339.21,-186.08"/>
</g>
<!-- [root] local.subnet&#45;05_name (expand) -->
<g id="node36" class="node">
<title>[root] local.subnet&#45;05_name (expand)</title>
<ellipse fill="none" stroke="black" cx="2463.77" cy="-234" rx="144.87" ry="18"/>
<text text-anchor="middle" x="2463.77" y="-230.3" font-family="Times,serif" font-size="14.00">[root] local.subnet&#45;05_name (expand)</text>
</g>
<!-- [root] local.subnet&#45;05_name (expand)&#45;&gt;[root] var.aws_region_us_east_north_virginia -->
<g id="edge46" class="edge">
<title>[root] local.subnet&#45;05_name (expand)&#45;&gt;[root] var.aws_region_us_east_north_virginia</title>
<path fill="none" stroke="black" d="M2402.1,-217.64C2360.65,-207.31 2305.66,-193.61 2261.11,-182.51"/>
<polygon fill="black" stroke="black" points="2261.74,-179.07 2251.19,-180.04 2260.05,-185.86 2261.74,-179.07"/>
</g>
<!-- [root] local.subnet&#45;05_name (expand)&#45;&gt;[root] var.vpc_cidr_subnets -->
<g id="edge47" class="edge">
<title>[root] local.subnet&#45;05_name (expand)&#45;&gt;[root] var.vpc_cidr_subnets</title>
<path fill="none" stroke="black" d="M2450.7,-216.05C2444.29,-207.75 2436.45,-197.58 2429.35,-188.38"/>
<polygon fill="black" stroke="black" points="2431.97,-186.06 2423.09,-180.28 2426.43,-190.33 2431.97,-186.06"/>
</g>
<!-- [root] output.aws_vpc (expand) -->
<g id="node37" class="node">
<title>[root] output.aws_vpc (expand)</title>
<ellipse fill="none" stroke="black" cx="757.77" cy="-378" rx="122.38" ry="18"/>
<text text-anchor="middle" x="757.77" y="-374.3" font-family="Times,serif" font-size="14.00">[root] output.aws_vpc (expand)</text>
</g>
<!-- [root] output.aws_vpc (expand)&#45;&gt;[root] aws_vpc.vpc (expand) -->
<g id="edge53" class="edge">
<title>[root] output.aws_vpc (expand)&#45;&gt;[root] aws_vpc.vpc (expand)</title>
<path fill="none" stroke="black" d="M795.78,-360.77C812.47,-351.99 831.11,-339.7 843.77,-324 875.7,-284.38 843.51,-249.55 881.77,-216 910.76,-190.57 1015.13,-175.35 1080.1,-168.12"/>
<polygon fill="black" stroke="black" points="1080.61,-171.59 1090.18,-167.03 1079.86,-164.63 1080.61,-171.59"/>
</g>
<!-- [root] provider[&quot;registry.terraform.io/hashicorp/aws&quot;] (close) -->
<g id="node38" class="node">
<title>[root] provider[&quot;registry.terraform.io/hashicorp/aws&quot;] (close)</title>
<ellipse fill="none" stroke="black" cx="1341.77" cy="-450" rx="227.46" ry="18"/>
<text text-anchor="middle" x="1341.77" y="-446.3" font-family="Times,serif" font-size="14.00">[root] provider[&quot;registry.terraform.io/hashicorp/aws&quot;] (close)</text>
</g>
<!-- [root] provider[&quot;registry.terraform.io/hashicorp/aws&quot;] (close)&#45;&gt;[root] aws_route_table_association.route&#45;table&#45;private&#45;subnet&#45;05 (expand) -->
<g id="edge54" class="edge">
<title>[root] provider[&quot;registry.terraform.io/hashicorp/aws&quot;] (close)&#45;&gt;[root] aws_route_table_association.route&#45;table&#45;private&#45;subnet&#45;05 (expand)</title>
<path fill="none" stroke="black" d="M1368.15,-432.05C1382.37,-422.92 1400.11,-411.53 1415.5,-401.65"/>
<polygon fill="black" stroke="black" points="1417.72,-404.38 1424.25,-396.03 1413.94,-398.49 1417.72,-404.38"/>
</g>
<!-- [root] provider[&quot;registry.terraform.io/hashicorp/aws&quot;] (close)&#45;&gt;[root] aws_route_table_association.route&#45;table&#45;public&#45;subnet&#45;01 (expand) -->
<g id="edge55" class="edge">
<title>[root] provider[&quot;registry.terraform.io/hashicorp/aws&quot;] (close)&#45;&gt;[root] aws_route_table_association.route&#45;table&#45;public&#45;subnet&#45;01 (expand)</title>
<path fill="none" stroke="black" d="M1284.96,-432.5C1250.49,-422.49 1206.26,-409.64 1169.78,-399.05"/>
<polygon fill="black" stroke="black" points="1170.29,-395.55 1159.71,-396.12 1168.34,-402.27 1170.29,-395.55"/>
</g>
<!-- [root] provider[&quot;registry.terraform.io/hashicorp/aws&quot;] (close)&#45;&gt;[root] data.aws_availability_zones.available (expand) -->
<g id="edge56" class="edge">
<title>[root] provider[&quot;registry.terraform.io/hashicorp/aws&quot;] (close)&#45;&gt;[root] data.aws_availability_zones.available (expand)</title>
<path fill="none" stroke="black" d="M1172.04,-437.99C1077.21,-429.76 969.72,-416.36 926.77,-396 905.75,-386.03 909.79,-369.96 888.77,-360 862.3,-347.46 705.33,-329.87 591.52,-318.45"/>
<polygon fill="black" stroke="black" points="591.63,-314.95 581.33,-317.43 590.94,-321.91 591.63,-314.95"/>
</g>
<!-- [root] root -->
<g id="node39" class="node">
<title>[root] root</title>
<ellipse fill="none" stroke="black" cx="2722.77" cy="-522" rx="47.39" ry="18"/>
<text text-anchor="middle" x="2722.77" y="-518.3" font-family="Times,serif" font-size="14.00">[root] root</text>
</g>
<!-- [root] root&#45;&gt;[root] var.instance_type -->
<g id="edge68" class="edge">
<title>[root] root&#45;&gt;[root] var.instance_type</title>
<path fill="none" stroke="black" d="M2744.86,-505.98C2758.63,-496.63 2776.61,-484.41 2792.12,-473.87"/>
<polygon fill="black" stroke="black" points="2794.14,-476.73 2800.45,-468.21 2790.21,-470.94 2794.14,-476.73"/>
</g>
<!-- [root] root&#45;&gt;[root] var.vpc_name -->
<g id="edge69" class="edge">
<title>[root] root&#45;&gt;[root] var.vpc_name</title>
<path fill="none" stroke="black" d="M2758.1,-509.91C2793.35,-498.84 2848.05,-481.68 2889.31,-468.72"/>
<polygon fill="black" stroke="black" points="2890.47,-472.03 2898.96,-465.69 2888.37,-465.35 2890.47,-472.03"/>
</g>
<!-- [root] root&#45;&gt;[root] local.common_tags (expand) -->
<g id="edge60" class="edge">
<title>[root] root&#45;&gt;[root] local.common_tags (expand)</title>
<path fill="none" stroke="black" d="M2769.9,-519.44C2895.13,-514.87 3229.19,-499.8 3266.77,-468 3298.04,-441.54 3290.77,-419.97 3290.77,-379 3290.77,-379 3290.77,-379 3290.77,-233 3290.77,-192.03 3298.57,-169.82 3266.77,-144 3236.45,-119.38 2726.26,-101.93 2471.36,-94.7"/>
<polygon fill="black" stroke="black" points="2471.38,-91.2 2461.28,-94.42 2471.18,-98.2 2471.38,-91.2"/>
</g>
<!-- [root] root&#45;&gt;[root] local.private&#45;rtb (expand) -->
<g id="edge61" class="edge">
<title>[root] root&#45;&gt;[root] local.private&#45;rtb (expand)</title>
<path fill="none" stroke="black" d="M2769.34,-518.49C2898.67,-510.27 3252.77,-478.66 3252.77,-379 3252.77,-379 3252.77,-379 3252.77,-233 3252.77,-113.41 2302.57,-121.7 2183.77,-108 2172.59,-106.71 2160.89,-105.3 2149.27,-103.87"/>
<polygon fill="black" stroke="black" points="2149.44,-100.36 2139.08,-102.6 2148.58,-107.31 2149.44,-100.36"/>
</g>
<!-- [root] root&#45;&gt;[root] local.subnet&#45;02_name (expand) -->
<g id="edge62" class="edge">
<title>[root] root&#45;&gt;[root] local.subnet&#45;02_name (expand)</title>
<path fill="none" stroke="black" d="M2719.42,-503.91C2712.47,-464.38 2699.33,-364.19 2727.77,-288 2731.63,-277.64 2738.45,-267.85 2745.57,-259.57"/>
<polygon fill="black" stroke="black" points="2748.23,-261.86 2752.42,-252.13 2743.07,-257.12 2748.23,-261.86"/>
</g>
<!-- [root] root&#45;&gt;[root] local.subnet&#45;03_name (expand) -->
<g id="edge63" class="edge">
<title>[root] root&#45;&gt;[root] local.subnet&#45;03_name (expand)</title>
<path fill="none" stroke="black" d="M2726.94,-503.92C2732.34,-484.67 2743.31,-453.28 2761.77,-432 2836.76,-345.56 2959.18,-284.78 3028.21,-255.29"/>
<polygon fill="black" stroke="black" points="3029.73,-258.45 3037.58,-251.34 3027.01,-252 3029.73,-258.45"/>
</g>
<!-- [root] root&#45;&gt;[root] local.subnet&#45;04_name (expand) -->
<g id="edge64" class="edge">
<title>[root] root&#45;&gt;[root] local.subnet&#45;04_name (expand)</title>
<path fill="none" stroke="black" d="M2695.42,-507.21C2603.96,-461.07 2308.31,-311.94 2197.89,-256.24"/>
<polygon fill="black" stroke="black" points="2199.22,-253 2188.71,-251.62 2196.07,-259.25 2199.22,-253"/>
</g>
<!-- [root] root&#45;&gt;[root] local.subnet&#45;05_name (expand) -->
<g id="edge65" class="edge">
<title>[root] root&#45;&gt;[root] local.subnet&#45;05_name (expand)</title>
<path fill="none" stroke="black" d="M2708.1,-504.8C2664.87,-457.06 2537.74,-316.68 2486.03,-259.58"/>
<polygon fill="black" stroke="black" points="2488.55,-257.15 2479.25,-252.09 2483.36,-261.85 2488.55,-257.15"/>
</g>
<!-- [root] root&#45;&gt;[root] output.aws_vpc (expand) -->
<g id="edge66" class="edge">
<title>[root] root&#45;&gt;[root] output.aws_vpc (expand)</title>
<path fill="none" stroke="black" d="M2675.08,-520.84C2441.89,-519.82 1420.33,-512.83 1105.77,-468 1001.47,-453.13 883.27,-419.13 814.95,-397.72"/>
<polygon fill="black" stroke="black" points="815.82,-394.33 805.23,-394.66 813.72,-401 815.82,-394.33"/>
</g>
<!-- [root] root&#45;&gt;[root] provider[&quot;registry.terraform.io/hashicorp/aws&quot;] (close) -->
<g id="edge67" class="edge">
<title>[root] root&#45;&gt;[root] provider[&quot;registry.terraform.io/hashicorp/aws&quot;] (close)</title>
<path fill="none" stroke="black" d="M2676.03,-518.63C2499.06,-509.66 1863.66,-477.45 1537.7,-460.93"/>
<polygon fill="black" stroke="black" points="1537.83,-457.43 1527.67,-460.42 1537.48,-464.42 1537.83,-457.43"/>
</g>
</g>
</svg>
